<svg width="80" height="89" viewBox="0 0 80 89" fill="none" xmlns="http://www.w3.org/2000/svg">
<g filter="url(#filter0_d)">
<path fill-rule="evenodd" clip-rule="evenodd" d="M19.6792 64.4355C20.0117 64.7595 20.7907 65.3214 21.394 65.286C21.774 65.2759 22.211 64.9924 22.648 64.4558C24.0777 62.6788 25.6642 61.7321 27.36 61.6309C29.9297 61.4739 31.8677 63.3623 32.8035 64.2684C34.086 65.4936 34.6322 65.5999 34.808 65.5746C35.0312 65.5543 36.8315 63.4534 37.7767 62.8155V30.6737L23.6502 33.9846V18.0124C23.6502 16.2759 25.023 14.8736 26.7045 14.8736H38.095V30.7699C39.3442 30.4763 41.3915 30.4763 42.6502 30.7699V14.8736H54.0835C55.765 14.8736 57.133 16.2759 57.133 18.0124L57.2042 34.1213L42.9542 30.6737V61.8941C43.32 61.7929 43.7142 61.7271 44.1417 61.7169C45.41 61.7068 47.3147 62.0916 49.1625 64.2229C49.7847 64.9215 50.4355 65.3113 50.7775 65.3063C51.205 65.2809 52.0742 64.2533 52.1407 64.1824C52.364 63.9444 54.397 61.8486 57.1425 61.9194C58.3015 61.9549 60.0115 62.3801 61.5505 64.2684C62.2107 65.0734 62.8377 65.5543 63.2937 65.5847C64.0442 65.6454 65.1605 64.5519 65.6307 64.0913C66.6995 63.0686 68.0865 61.9599 69.787 61.7018C69.787 61.7018 72.4945 49.3138 70.4377 43.8261C69.3452 40.9101 69.084 38.3687 63.2747 36.2273C62.7475 36.0349 62.1965 35.8982 61.6645 35.7058V17.1518C61.6645 13.3296 58.6435 10.2262 54.9242 10.2262H47.405V0.106312H42.7595V10.2262H37.905V0.212624H33.2595V10.2262H25.9112C22.192 10.2262 19.1615 13.3296 19.1615 17.1518V35.721C18.6437 35.8982 18.1117 36.0349 17.6035 36.2273C11.8275 38.3687 11.7277 41.0873 10.4547 43.9223C8.01322 49.3644 11.8085 63.1091 11.8085 63.1091C13.2287 62.0409 14.535 61.8435 15.4755 61.9093C17.784 62.0764 19.2232 63.8128 19.6792 64.4355Z" fill="#E33741"/>
<path fill-rule="evenodd" clip-rule="evenodd" d="M75.6105 74.6567C74.3375 72.4292 72.8555 71.199 71.2072 71.0117C70.8055 70.9761 70.401 71 70.0054 71.0826C68.2622 71.4066 66.8372 72.8241 65.74 74.115C65.2555 74.6921 64.125 76.0944 63.346 76.0134C62.89 75.978 62.2345 75.3654 61.5647 74.3428C59.983 71.9482 58.235 71.4015 57.0475 71.361C54.226 71.28 52.1597 73.9277 51.927 74.2365C51.8518 74.3335 51.7865 74.4387 51.7322 74.5504C51.528 74.9199 50.9675 75.6236 50.5162 75.6591C50.1695 75.6692 49.5045 75.1629 48.8822 74.277C46.9822 71.5837 45.0299 71.0927 43.7427 71.1079C43.3245 71.1293 42.9101 71.2024 42.5077 71.3256C41.686 71.5787 40.9877 72.0242 40.4035 72.5051C39.4249 73.3151 38.8312 74.2061 38.7172 74.3833C38.6317 74.4997 38.57 74.6415 38.5035 74.7883C37.9857 75.6439 37.5677 75.9831 37.3492 76.0084C37.1402 76.0387 36.594 75.9071 35.2735 74.3479C34.3045 73.2037 32.3047 70.7991 29.6399 70.9914C27.9015 71.1281 26.2627 72.333 24.7807 74.5757C24.3247 75.2642 23.883 75.6236 23.4935 75.6439C22.8665 75.6742 22.0732 74.9655 21.7264 74.5554C21.2657 73.7657 19.7647 71.5635 17.3897 71.3559C16.416 71.2597 15.067 71.5129 13.6087 72.8696C13.0811 73.3639 12.605 73.9172 12.1885 74.52C11.7372 75.1528 11.0295 75.8767 10.412 75.8919C9.65195 75.8818 8.84445 74.9351 8.6307 74.5959C7.9182 73.5024 6.6072 73.2797 5.68095 74.1099C5.23177 74.5419 4.94194 75.1305 4.86358 75.7699C4.78521 76.4093 4.92346 77.0575 5.25345 77.598C5.4577 77.9321 7.3577 80.7924 10.2885 80.8785C11.59 80.919 13.5375 80.3925 15.428 77.7043C15.4707 77.6436 15.5087 77.6031 15.542 77.5474C16.1357 76.7627 16.72 76.302 17.0715 76.3222C17.5085 76.3526 18.0785 77.0614 18.2637 77.4006C18.3227 77.5235 18.3944 77.6389 18.4775 77.7448C18.7055 78.0536 20.7765 80.7924 23.598 80.6203C24.7807 80.5849 26.524 80.028 28.101 77.6385C28.7897 76.6159 29.431 76.0033 29.9012 75.9729C30.666 75.9476 31.7964 77.2791 32.2952 77.8612C33.5397 79.3395 35.207 80.9848 37.297 80.9848C37.4442 80.9848 37.601 80.9797 37.753 80.9646C38.6982 80.8582 39.5817 80.3722 40.4082 79.5926C41.0305 79.0054 41.6147 78.2713 42.1515 77.3196C42.1847 77.274 42.2037 77.2234 42.2275 77.1778C42.3082 77.0816 42.4032 76.9652 42.5172 76.8589C42.8687 76.4944 43.3817 76.0995 43.871 76.0894H43.8852C44.5407 76.0894 45.1962 76.8386 45.6427 77.4664C47.633 80.2811 49.5472 80.7367 50.8487 80.6254C53.2237 80.4178 54.7247 78.2207 55.1902 77.4208C55.4515 77.112 56.2922 76.2463 56.943 76.3425C57.3467 76.3476 57.7789 76.7121 58.2397 77.4006C59.7217 79.6432 61.3652 80.8582 63.099 80.9797C64.3245 81.081 65.4217 80.5899 66.348 79.9318C67.3882 79.1977 68.2242 78.246 68.742 77.6385C70.0482 76.0742 70.623 75.9375 70.8035 75.978C71.0505 76.0033 71.516 76.3982 72.1097 77.4309C72.7605 78.5801 74.0762 78.8839 75.0405 78.1144C75.511 77.7084 75.8279 77.1347 75.9327 76.4992C76.0375 75.8637 75.923 75.2093 75.6105 74.6567Z" fill="#E33741"/>
</g>
<defs>
<filter id="filter0_d" x="-4" y="0" width="84" height="89" filterUnits="userSpaceOnUse" color-interpolation-filters="sRGB">
<feFlood flood-opacity="0" result="BackgroundImageFix"/>
<feColorMatrix in="SourceAlpha" type="matrix" values="0 0 0 0 0 0 0 0 0 0 0 0 0 0 0 0 0 0 127 0" result="hardAlpha"/>
<feOffset dy="4"/>
<feGaussianBlur stdDeviation="2"/>
<feComposite in2="hardAlpha" operator="out"/>
<feColorMatrix type="matrix" values="0 0 0 0 0 0 0 0 0 0 0 0 0 0 0 0 0 0 0.25 0"/>
<feBlend mode="normal" in2="BackgroundImageFix" result="effect1_dropShadow"/>
<feBlend mode="normal" in="SourceGraphic" in2="effect1_dropShadow" result="shape"/>
</filter>
</defs>
</svg>
