<svg width="32" height="32" viewBox="0 0 32 32" fill="none" xmlns="http://www.w3.org/2000/svg">
<path fill-rule="evenodd" clip-rule="evenodd" d="M16 30.6667C7.89998 30.6667 1.33331 24.1 1.33331 16C1.33331 7.9 7.89998 1.33334 16 1.33334C24.1 1.33334 30.6666 7.9 30.6666 16C30.6666 24.1 24.1 30.6667 16 30.6667ZM10.6666 17.3333C10.313 17.3333 9.97389 17.1929 9.72384 16.9428C9.47379 16.6928 9.33331 16.3536 9.33331 16C9.33331 15.6464 9.47379 15.3072 9.72384 15.0572C9.97389 14.8071 10.313 14.6667 10.6666 14.6667H21.3333C21.6869 14.6667 22.0261 14.8071 22.2761 15.0572C22.5262 15.3072 22.6666 15.6464 22.6666 16C22.6666 16.3536 22.5262 16.6928 22.2761 16.9428C22.0261 17.1929 21.6869 17.3333 21.3333 17.3333H10.6666Z" fill="#E33741"/>
</svg>
