<svg width="80" height="89" viewBox="0 0 80 89" fill="none" xmlns="http://www.w3.org/2000/svg">
<g filter="url(#filter0_d)">
<path fill-rule="evenodd" clip-rule="evenodd" d="M19.6793 64.4355C20.0118 64.7595 20.7908 65.3215 21.394 65.286C21.774 65.2759 22.211 64.9924 22.648 64.4558C24.0778 62.6788 25.6643 61.7321 27.36 61.6309C29.9298 61.474 31.8678 63.3623 32.8035 64.2685C34.086 65.4936 34.6323 65.5999 34.808 65.5746C35.0313 65.5543 36.8315 63.4534 37.7768 62.8155V30.6737L23.6503 33.9846V18.0124C23.6503 16.276 25.023 14.8736 26.7045 14.8736H38.095V30.7699C39.3443 30.4763 41.3915 30.4763 42.6503 30.7699V14.8736H54.0835C55.765 14.8736 57.133 16.276 57.133 18.0124L57.2043 34.1213L42.9543 30.6737V61.8941C43.32 61.7929 43.7143 61.7271 44.1418 61.717C45.41 61.7068 47.3148 62.0916 49.1625 64.2229C49.7848 64.9215 50.4355 65.3113 50.7775 65.3063C51.205 65.281 52.0743 64.2533 52.1408 64.1824C52.364 63.9445 54.397 61.8486 57.1425 61.9195C58.3015 61.9549 60.0115 62.3801 61.5505 64.2685C62.2108 65.0734 62.8378 65.5543 63.2938 65.5847C64.0443 65.6455 65.1605 64.552 65.6308 64.0913C66.6995 63.0686 68.0865 61.96 69.787 61.7018C69.787 61.7018 72.4945 49.3138 70.4378 43.8261C69.3453 40.9101 69.084 38.3687 63.2748 36.2273C62.7475 36.0349 62.1965 35.8982 61.6645 35.7058V17.1518C61.6645 13.3296 58.6435 10.2263 54.9243 10.2263H47.405V0.106323H42.7595V10.2263H37.905V0.212636H33.2595V10.2263H25.9113C22.192 10.2263 19.1615 13.3296 19.1615 17.1518V35.721C18.6438 35.8982 18.1118 36.0349 17.6035 36.2273C11.8275 38.3687 11.7278 41.0873 10.4548 43.9223C8.01328 49.3645 11.8085 63.1091 11.8085 63.1091C13.2288 62.041 14.535 61.8435 15.4755 61.9093C17.784 62.0764 19.2233 63.8128 19.6793 64.4355Z" fill="#F3F5FF"/>
<path fill-rule="evenodd" clip-rule="evenodd" d="M75.6105 74.6567C74.3375 72.4292 72.8555 71.199 71.2073 71.0117C70.8055 70.9761 70.4011 71 70.0055 71.0826C68.2623 71.4066 66.8373 72.8241 65.74 74.115C65.2555 74.6921 64.125 76.0945 63.346 76.0135C62.89 75.978 62.2345 75.3655 61.5648 74.3428C59.983 71.9483 58.235 71.4015 57.0475 71.361C54.226 71.28 52.1598 73.9277 51.927 74.2365C51.8518 74.3335 51.7865 74.4387 51.7323 74.5504C51.528 74.9199 50.9675 75.6236 50.5163 75.6591C50.1695 75.6692 49.5045 75.163 48.8823 74.277C46.9823 71.5838 45.03 71.0927 43.7428 71.1079C43.3246 71.1293 42.9102 71.2024 42.5078 71.3256C41.686 71.5787 40.9878 72.0242 40.4035 72.5051C39.425 73.3151 38.8313 74.2061 38.7173 74.3833C38.6318 74.4998 38.57 74.6415 38.5035 74.7883C37.9858 75.6439 37.5678 75.9831 37.3493 76.0084C37.1403 76.0388 36.594 75.9071 35.2735 74.3479C34.3045 73.2038 32.3048 70.7991 29.64 70.9915C27.9015 71.1281 26.2628 72.333 24.7808 74.5757C24.3248 75.2642 23.883 75.6236 23.4935 75.6439C22.8665 75.6743 22.0733 74.9655 21.7265 74.5555C21.2658 73.7657 19.7648 71.5635 17.3898 71.356C16.416 71.2598 15.067 71.5129 13.6088 72.8696C13.0812 73.3639 12.605 73.9172 12.1885 74.52C11.7373 75.1528 11.0295 75.8768 10.412 75.892C9.65201 75.8818 8.84451 74.9351 8.63076 74.5959C7.91826 73.5024 6.60726 73.2797 5.68101 74.11C5.23183 74.5419 4.942 75.1306 4.86364 75.7699C4.78527 76.4093 4.92352 77.0575 5.25351 77.598C5.45776 77.9321 7.35776 80.7924 10.2885 80.8785C11.59 80.919 13.5375 80.3925 15.428 77.7043C15.4708 77.6436 15.5088 77.6031 15.542 77.5474C16.1358 76.7627 16.72 76.302 17.0715 76.3223C17.5085 76.3526 18.0785 77.0614 18.2638 77.4006C18.3227 77.5235 18.3944 77.6389 18.4775 77.7448C18.7055 78.0536 20.7765 80.7924 23.598 80.6203C24.7808 80.5849 26.524 80.028 28.101 77.6385C28.7898 76.6159 29.431 76.0033 29.9013 75.9729C30.666 75.9476 31.7965 77.2791 32.2953 77.8613C33.5398 79.3395 35.207 80.9848 37.297 80.9848C37.4443 80.9848 37.601 80.9798 37.753 80.9646C38.6983 80.8583 39.5818 80.3723 40.4083 79.5926C41.0305 79.0054 41.6148 78.2713 42.1515 77.3196C42.1848 77.274 42.2038 77.2234 42.2275 77.1778C42.3083 77.0816 42.4033 76.9652 42.5173 76.8589C42.8688 76.4944 43.3818 76.0995 43.871 76.0894H43.8853C44.5408 76.0894 45.1963 76.8386 45.6428 77.4664C47.633 80.2811 49.5473 80.7368 50.8488 80.6254C53.2238 80.4178 54.7248 78.2207 55.1903 77.4208C55.4515 77.112 56.2923 76.2463 56.943 76.3425C57.3468 76.3476 57.779 76.7121 58.2398 77.4006C59.7218 79.6433 61.3653 80.8583 63.099 80.9798C64.3245 81.081 65.4218 80.5899 66.348 79.9318C67.3883 79.1978 68.2243 78.246 68.742 77.6385C70.0483 76.0742 70.623 75.9375 70.8035 75.978C71.0505 76.0033 71.516 76.3982 72.1098 77.4309C72.7605 78.5801 74.0763 78.8839 75.0405 78.1144C75.5111 77.7084 75.828 77.1348 75.9328 76.4993C76.0375 75.8637 75.9231 75.2093 75.6105 74.6567Z" fill="#F3F5FF"/>
</g>
<defs>
<filter id="filter0_d" x="-4" y="0" width="84" height="89" filterUnits="userSpaceOnUse" color-interpolation-filters="sRGB">
<feFlood flood-opacity="0" result="BackgroundImageFix"/>
<feColorMatrix in="SourceAlpha" type="matrix" values="0 0 0 0 0 0 0 0 0 0 0 0 0 0 0 0 0 0 127 0" result="hardAlpha"/>
<feOffset dy="4"/>
<feGaussianBlur stdDeviation="2"/>
<feComposite in2="hardAlpha" operator="out"/>
<feColorMatrix type="matrix" values="0 0 0 0 0 0 0 0 0 0 0 0 0 0 0 0 0 0 0.25 0"/>
<feBlend mode="normal" in2="BackgroundImageFix" result="effect1_dropShadow"/>
<feBlend mode="normal" in="SourceGraphic" in2="effect1_dropShadow" result="shape"/>
</filter>
</defs>
</svg>
