<svg width="32" height="32" viewBox="0 0 32 32" fill="none" xmlns="http://www.w3.org/2000/svg">
<path fill-rule="evenodd" clip-rule="evenodd" d="M16 30.6667C7.90001 30.6667 1.33334 24.1 1.33334 16C1.33334 7.9 7.90001 1.33334 16 1.33334C24.1 1.33334 30.6667 7.9 30.6667 16C30.6667 24.1 24.1 30.6667 16 30.6667ZM17.3333 10.6667C17.3333 10.313 17.1929 9.97391 16.9428 9.72386C16.6928 9.47381 16.3536 9.33334 16 9.33334C15.6464 9.33334 15.3072 9.47381 15.0572 9.72386C14.8072 9.97391 14.6667 10.313 14.6667 10.6667V14.6667H10.6667C10.3131 14.6667 9.97392 14.8071 9.72387 15.0572C9.47382 15.3072 9.33334 15.6464 9.33334 16C9.33334 16.3536 9.47382 16.6928 9.72387 16.9428C9.97392 17.1929 10.3131 17.3333 10.6667 17.3333H14.6667V21.3333C14.6667 21.687 14.8072 22.0261 15.0572 22.2761C15.3072 22.5262 15.6464 22.6667 16 22.6667C16.3536 22.6667 16.6928 22.5262 16.9428 22.2761C17.1929 22.0261 17.3333 21.687 17.3333 21.3333V17.3333H21.3333C21.687 17.3333 22.0261 17.1929 22.2762 16.9428C22.5262 16.6928 22.6667 16.3536 22.6667 16C22.6667 15.6464 22.5262 15.3072 22.2762 15.0572C22.0261 14.8071 21.687 14.6667 21.3333 14.6667H17.3333V10.6667Z" fill="#E33741"/>
</svg>
